<svg xmlns="http://www.w3.org/2000/svg" viewBox="0 0 100 100" fill="none" role="img" aria-label="IR — Indra Ranuh">
  <title>IR</title>
  <style>
    .bg {
      fill: #ffffff;
    }
    .letter {
      fill: #000000;
    }

    @media (prefers-color-scheme: dark) {
      .bg {
        fill: #09090b;
      }
      .letter {
        fill: #fafafa;
      }
    }
  </style>

  <rect class="bg" width="100" height="100" />
  <path
    class="letter"
    d="M17.7197 73V67.752H27.2557V31.528H17.7197V26.28H42.6797V31.528H33.1437V67.752H42.6797V73H17.7197Z"
  />
  <path
    class="letter"
    d="M55.2627 73V26.28H69.7267C72.5001 26.28 74.9321 26.856 77.0227 28.008C79.1134 29.1174 80.7347 30.6747 81.8867 32.68C83.0387 34.6854 83.6147 37.032 83.6147 39.72C83.6147 42.8774 82.7827 45.5867 81.1187 47.848C79.4974 50.1094 77.2787 51.6667 74.4627 52.52L84.2547 73H77.4707L68.5107 53.16H61.0227V73H55.2627ZM61.0227 47.976H69.7267C72.1161 47.976 74.0361 47.2294 75.4867 45.736C76.9374 44.2 77.6627 42.1947 77.6627 39.72C77.6627 37.2027 76.9374 35.1974 75.4867 33.704C74.0361 32.2107 72.1161 31.464 69.7267 31.464H61.0227V47.976Z"
  />
</svg>
